<svg width="63" height="83" viewBox="0 0 63 83" fill="none" xmlns="http://www.w3.org/2000/svg">
<path d="M61.146 43.7361L4.17638 81.7158C3.77167 81.9852 3.30149 82.1396 2.81592 82.1629C2.33035 82.1861 1.84756 82.0772 1.41899 81.8477C0.990426 81.6183 0.632119 81.2769 0.382236 80.8599C0.132352 80.4429 0.000251122 79.966 0 79.4798V3.52034C0.000251122 3.03421 0.132352 2.55726 0.382236 2.14027C0.632119 1.72329 0.990426 1.38189 1.41899 1.15244C1.84756 0.922983 2.33035 0.81407 2.81592 0.837299C3.30149 0.860527 3.77167 1.01503 4.17638 1.28434L61.146 39.2641C61.5141 39.5095 61.8159 39.842 62.0246 40.2321C62.2333 40.6221 62.3425 41.0577 62.3425 41.5001C62.3425 41.9425 62.2333 42.378 62.0246 42.7681C61.8159 43.1582 61.5141 43.4907 61.146 43.7361Z" fill="#FCBD17"/>
</svg>
