<svg width="541" height="59" viewBox="0 0 541 59" fill="none" xmlns="http://www.w3.org/2000/svg">
<path d="M29.282 24.5438C31.8421 22.3205 33.3917 19.2214 33.3917 15.3138C33.3917 7.16171 26.7218 1.83929 18.5024 1.83929H0.0423464V49H19.8498C28.2714 49 35.076 43.5428 35.076 35.1886C35.076 30.4052 32.7854 26.7671 29.282 24.5438ZM18.5024 11.9452C20.9952 11.9452 22.6121 13.6968 22.6121 16.1222C22.6121 18.5477 20.9278 20.2993 18.5024 20.2993H10.8219V11.9452H18.5024ZM19.8498 38.8941H10.8219V29.8662H19.8498C22.5447 29.8662 24.2964 31.7527 24.2964 34.3802C24.2964 37.0077 22.5447 38.8941 19.8498 38.8941ZM62.9419 49.9432C71.5656 49.9432 79.1113 45.6988 83.1536 39.0289L73.8562 33.6391C71.835 37.2772 67.7253 39.4331 62.9419 39.4331C54.5877 39.4331 49.1979 33.8412 49.1979 25.4196C49.1979 16.9981 54.5877 11.4062 62.9419 11.4062C67.7253 11.4062 71.7677 13.5621 73.8562 17.2002L83.1536 11.8104C79.0439 5.14054 71.4982 0.896077 62.9419 0.896077C48.7263 0.896077 38.4183 11.5409 38.4183 25.4196C38.4183 39.2984 48.7263 49.9432 62.9419 49.9432ZM98.9851 38.6246V30.2705H115.828V20.0299H98.9851V12.2146H117.513V1.83929H88.2055V49H117.849V38.6246H98.9851ZM177.829 38.6246V1.83929H146.232V22.9942C146.232 31.0116 144.682 35.5255 142.526 38.6246H137.743V58.0279H148.522V49H172.103V58.0279H182.882V38.6246H177.829ZM153.979 38.6246C155.664 35.5929 157.011 30.8768 157.011 23.129V11.9452H167.05V38.6246H153.979ZM185.896 49C194.587 49.9432 204.49 46.7093 204.49 29.8662V12.2146H215.539V49H226.319V1.83929H193.711V30.2705C193.711 38.153 190.746 39.6352 185.896 38.8941V49ZM268.422 1.83929H249.557C240.597 1.83929 233.388 9.04814 233.388 18.0087C233.388 24.1396 237.363 29.7315 243.089 32.1569L232.04 49H244.167L254.206 33.5043H257.642V49H268.422V1.83929ZM249.557 24.0722C246.593 24.0722 244.167 21.4447 244.167 18.0087C244.167 14.5727 246.593 11.9452 249.557 11.9452H257.642V24.0722H249.557ZM325.014 1.83929H289.981V12.2146H302.108V49H312.887V12.2146H325.014V1.83929ZM340.513 38.6246V30.2705H357.356V20.0299H340.513V12.2146H359.04V1.83929H329.733V49H359.377V38.6246H340.513ZM401.166 1.83929H365.459V49H376.238V12.2146H390.387V49H401.166V1.83929ZM405.909 49C414.6 49.9432 424.503 46.7093 424.503 29.8662V12.2146H435.553V49H446.332V1.83929H413.724V30.2705C413.724 38.153 410.759 39.6352 405.909 38.8941V49ZM480.687 49H491.466V1.83929H483.382L465.191 27.4408V1.83929H454.412V49H462.496L480.687 23.3985V49ZM535.253 38.6246V1.83929H524.474V38.6246H510.325V1.83929H499.546V49H529.527V58.0279H540.306V38.6246H535.253Z" fill="white"/>
<path d="M29.282 24.5438L28.6263 23.7888L27.6128 24.6689L28.7462 25.3881L29.282 24.5438ZM0.0423465 1.83929V0.839291H-0.957654V1.83929H0.0423465ZM0.0423465 49H-0.957654V50H0.0423465V49ZM10.8219 20.2993H9.82194V21.2993H10.8219V20.2993ZM10.8219 11.9452V10.9452H9.82194V11.9452H10.8219ZM10.8219 38.8941H9.82194V39.8941H10.8219V38.8941ZM10.8219 29.8662V28.8662H9.82194V29.8662H10.8219ZM29.9377 25.2988C32.7138 22.888 34.3917 19.5147 34.3917 15.3138H32.3917C32.3917 18.9281 30.9705 21.753 28.6263 23.7888L29.9377 25.2988ZM34.3917 15.3138C34.3917 6.48507 27.141 0.839291 18.5024 0.839291V2.83929C26.3027 2.83929 32.3917 7.83836 32.3917 15.3138H34.3917ZM18.5024 0.839291H0.0423465V2.83929H18.5024V0.839291ZM-0.957654 1.83929V49H1.04235V1.83929H-0.957654ZM0.0423465 50H19.8498V48H0.0423465V50ZM19.8498 50C28.6936 50 36.076 44.2168 36.076 35.1886H34.076C34.076 42.8689 27.8492 48 19.8498 48V50ZM36.076 35.1886C36.076 30.0442 33.5941 26.096 29.8178 23.6995L28.7462 25.3881C31.9766 27.4382 34.076 30.7662 34.076 35.1886H36.076ZM18.5024 12.9452C19.5052 12.9452 20.2638 13.292 20.7728 13.8189C21.2858 14.35 21.6121 15.1341 21.6121 16.1222H23.6121C23.6121 14.685 23.13 13.3805 22.2113 12.4294C21.2886 11.4742 19.9923 10.9452 18.5024 10.9452V12.9452ZM21.6121 16.1222C21.6121 17.0991 21.2763 17.8845 20.7516 18.4214C20.229 18.9561 19.4659 19.2993 18.5024 19.2993V21.2993C19.9643 21.2993 21.2561 20.7667 22.182 19.8193C23.1058 18.8739 23.6121 17.5708 23.6121 16.1222H21.6121ZM18.5024 19.2993H10.8219V21.2993H18.5024V19.2993ZM11.8219 20.2993V11.9452H9.82194V20.2993H11.8219ZM10.8219 12.9452H18.5024V10.9452H10.8219V12.9452ZM19.8498 37.8941H10.8219V39.8941H19.8498V37.8941ZM11.8219 38.8941V29.8662H9.82194V38.8941H11.8219ZM10.8219 30.8662H19.8498V28.8662H10.8219V30.8662ZM19.8498 30.8662C20.955 30.8662 21.7979 31.2476 22.3654 31.8336C22.9366 32.4234 23.2964 33.2912 23.2964 34.3802H25.2964C25.2964 32.8417 24.7804 31.4524 23.8021 30.4422C22.82 29.4281 21.4396 28.8662 19.8498 28.8662V30.8662ZM23.2964 34.3802C23.2964 35.4692 22.9366 36.3369 22.3654 36.9268C21.7979 37.5128 20.955 37.8941 19.8498 37.8941V39.8941C21.4396 39.8941 22.82 39.3322 23.8021 38.3182C24.7804 37.3079 25.2964 35.9187 25.2964 34.3802H23.2964ZM83.1536 39.0289L84.0088 39.5472L84.5373 38.6751L83.6551 38.1637L83.1536 39.0289ZM73.8562 33.6391L74.3577 32.7739L73.4767 32.2632L72.9821 33.1534L73.8562 33.6391ZM73.8562 17.2002L72.989 17.6981L73.4889 18.569L74.3577 18.0653L73.8562 17.2002ZM83.1536 11.8104L83.6551 12.6756L84.5438 12.1604L84.005 11.2858L83.1536 11.8104ZM62.9419 50.9432C71.8949 50.9432 79.7749 46.5331 84.0088 39.5472L82.2984 38.5106C78.4476 44.8644 71.2362 48.9432 62.9419 48.9432V50.9432ZM83.6551 38.1637L74.3577 32.7739L73.3547 34.5042L82.6521 39.894L83.6551 38.1637ZM72.9821 33.1534C71.1699 36.4154 67.4347 38.4331 62.9419 38.4331V40.4331C68.016 40.4331 72.5002 38.139 74.7304 34.1247L72.9821 33.1534ZM62.9419 38.4331C58.9945 38.4331 55.8302 37.1172 53.6527 34.886C51.4727 32.6522 50.1979 29.4147 50.1979 25.4196H48.1979C48.1979 29.8461 49.618 33.6154 52.2214 36.2829C54.8274 38.9531 58.5351 40.4331 62.9419 40.4331V38.4331ZM50.1979 25.4196C50.1979 21.4246 51.4727 18.1871 53.6527 15.9533C55.8302 13.7221 58.9945 12.4062 62.9419 12.4062V10.4062C58.5351 10.4062 54.8274 11.8862 52.2214 14.5564C49.618 17.2239 48.1979 20.9932 48.1979 25.4196H50.1979ZM62.9419 12.4062C67.4248 12.4062 71.1057 14.4175 72.989 17.6981L74.7235 16.7023C72.4297 12.7067 68.0258 10.4062 62.9419 10.4062V12.4062ZM74.3577 18.0653L83.6551 12.6756L82.6521 10.9453L73.3547 16.3351L74.3577 18.0653ZM84.005 11.2858C79.7057 4.30833 71.8307 -0.103923 62.9419 -0.103923V1.89608C71.1656 1.89608 78.3821 5.97275 82.3023 12.335L84.005 11.2858ZM62.9419 -0.103923C48.165 -0.103923 37.4183 10.9977 37.4183 25.4196H39.4183C39.4183 12.0841 49.2876 1.89608 62.9419 1.89608V-0.103923ZM37.4183 25.4196C37.4183 39.8416 48.165 50.9432 62.9419 50.9432V48.9432C49.2876 48.9432 39.4183 38.7552 39.4183 25.4196H37.4183ZM98.9851 38.6246H97.9851V39.6246H98.9851V38.6246ZM98.9851 30.2705V29.2705H97.9851V30.2705H98.9851ZM115.828 30.2705V31.2705H116.828V30.2705H115.828ZM115.828 20.0299H116.828V19.0299H115.828V20.0299ZM98.9851 20.0299H97.9851V21.0299H98.9851V20.0299ZM98.9851 12.2146V11.2146H97.9851V12.2146H98.9851ZM117.513 12.2146V13.2146H118.513V12.2146H117.513ZM117.513 1.83929H118.513V0.839291H117.513V1.83929ZM88.2055 1.83929V0.839291H87.2055V1.83929H88.2055ZM88.2055 49H87.2055V50H88.2055V49ZM117.849 49V50H118.849V49H117.849ZM117.849 38.6246H118.849V37.6246H117.849V38.6246ZM99.9851 38.6246V30.2705H97.9851V38.6246H99.9851ZM98.9851 31.2705H115.828V29.2705H98.9851V31.2705ZM116.828 30.2705V20.0299H114.828V30.2705H116.828ZM115.828 19.0299H98.9851V21.0299H115.828V19.0299ZM99.9851 20.0299V12.2146H97.9851V20.0299H99.9851ZM98.9851 13.2146H117.513V11.2146H98.9851V13.2146ZM118.513 12.2146V1.83929H116.513V12.2146H118.513ZM117.513 0.839291H88.2055V2.83929H117.513V0.839291ZM87.2055 1.83929V49H89.2055V1.83929H87.2055ZM88.2055 50H117.849V48H88.2055V50ZM118.849 49V38.6246H116.849V49H118.849ZM117.849 37.6246H98.9851V39.6246H117.849V37.6246ZM177.829 38.6246H176.829V39.6246H177.829V38.6246ZM177.829 1.83929H178.829V0.839291H177.829V1.83929ZM146.232 1.83929V0.839291H145.232V1.83929H146.232ZM142.526 38.6246V39.6246H143.049L143.347 39.1957L142.526 38.6246ZM137.743 38.6246V37.6246H136.743V38.6246H137.743ZM137.743 58.0279H136.743V59.0279H137.743V58.0279ZM148.522 58.0279V59.0279H149.522V58.0279H148.522ZM148.522 49V48H147.522V49H148.522ZM172.103 49H173.103V48H172.103V49ZM172.103 58.0279H171.103V59.0279H172.103V58.0279ZM182.882 58.0279V59.0279H183.882V58.0279H182.882ZM182.882 38.6246H183.882V37.6246H182.882V38.6246ZM153.979 38.6246L153.105 38.139L152.28 39.6246H153.979V38.6246ZM157.011 11.9452V10.9452H156.011V11.9452H157.011ZM167.05 11.9452H168.05V10.9452H167.05V11.9452ZM167.05 38.6246V39.6246H168.05V38.6246H167.05ZM178.829 38.6246V1.83929H176.829V38.6246H178.829ZM177.829 0.839291H146.232V2.83929H177.829V0.839291ZM145.232 1.83929V22.9942H147.232V1.83929H145.232ZM145.232 22.9942C145.232 30.8807 143.709 35.1736 141.705 38.0536L143.347 39.1957C145.655 35.8774 147.232 31.1424 147.232 22.9942H145.232ZM142.526 37.6246H137.743V39.6246H142.526V37.6246ZM136.743 38.6246V58.0279H138.743V38.6246H136.743ZM137.743 59.0279H148.522V57.0279H137.743V59.0279ZM149.522 58.0279V49H147.522V58.0279H149.522ZM148.522 50H172.103V48H148.522V50ZM171.103 49V58.0279H173.103V49H171.103ZM172.103 59.0279H182.882V57.0279H172.103V59.0279ZM183.882 58.0279V38.6246H181.882V58.0279H183.882ZM182.882 37.6246H177.829V39.6246H182.882V37.6246ZM154.854 39.1103C156.645 35.8854 158.011 30.9871 158.011 23.129H156.011C156.011 30.7665 154.682 35.3004 153.105 38.139L154.854 39.1103ZM158.011 23.129V11.9452H156.011V23.129H158.011ZM157.011 12.9452H167.05V10.9452H157.011V12.9452ZM166.05 11.9452V38.6246H168.05V11.9452H166.05ZM167.05 37.6246H153.979V39.6246H167.05V37.6246ZM185.896 49H184.896V49.8973L185.788 49.9942L185.896 49ZM204.49 12.2146V11.2146H203.49V12.2146H204.49ZM215.539 12.2146H216.539V11.2146H215.539V12.2146ZM215.539 49H214.539V50H215.539V49ZM226.319 49V50H227.319V49H226.319ZM226.319 1.83929H227.319V0.839291H226.319V1.83929ZM193.711 1.83929V0.839291H192.711V1.83929H193.711ZM185.896 38.8941L186.047 37.9056L184.896 37.7298V38.8941H185.896ZM185.788 49.9942C190.268 50.4804 195.22 49.9106 199.069 46.8896C202.951 43.8434 205.49 38.4808 205.49 29.8662H203.49C203.49 38.0948 201.078 42.7707 197.835 45.3163C194.559 47.8873 190.214 48.4628 186.003 48.0058L185.788 49.9942ZM205.49 29.8662V12.2146H203.49V29.8662H205.49ZM204.49 13.2146H215.539V11.2146H204.49V13.2146ZM214.539 12.2146V49H216.539V12.2146H214.539ZM215.539 50H226.319V48H215.539V50ZM227.319 49V1.83929H225.319V49H227.319ZM226.319 0.839291H193.711V2.83929H226.319V0.839291ZM192.711 1.83929V30.2705H194.711V1.83929H192.711ZM192.711 30.2705C192.711 34.1521 191.967 36.122 190.938 37.0866C189.942 38.0205 188.398 38.2649 186.047 37.9056L185.745 39.8827C188.243 40.2644 190.607 40.1383 192.306 38.5457C193.972 36.9839 194.711 34.2714 194.711 30.2705H192.711ZM184.896 38.8941V49H186.896V38.8941H184.896ZM268.422 1.83929H269.422V0.839291H268.422V1.83929ZM243.089 32.1569L243.926 32.7054L244.583 31.7034L243.479 31.2361L243.089 32.1569ZM232.04 49L231.204 48.4515L230.188 50H232.04V49ZM244.167 49V50H244.711L245.007 49.5437L244.167 49ZM254.206 33.5043V32.5043H253.662L253.367 32.9606L254.206 33.5043ZM257.642 33.5043H258.642V32.5043H257.642V33.5043ZM257.642 49H256.642V50H257.642V49ZM268.422 49V50H269.422V49H268.422ZM257.642 11.9452H258.642V10.9452H257.642V11.9452ZM257.642 24.0722V25.0722H258.642V24.0722H257.642ZM268.422 0.839291H249.557V2.83929H268.422V0.839291ZM249.557 0.839291C240.044 0.839291 232.388 8.49586 232.388 18.0087H234.388C234.388 9.60043 241.149 2.83929 249.557 2.83929V0.839291ZM232.388 18.0087C232.388 24.5739 236.634 30.5089 242.699 33.0777L243.479 31.2361C238.091 28.9541 234.388 23.7052 234.388 18.0087H232.388ZM242.253 31.6084L231.204 48.4515L232.877 49.5485L243.926 32.7054L242.253 31.6084ZM232.04 50H244.167V48H232.04V50ZM245.007 49.5437L255.045 34.048L253.367 32.9606L243.328 48.4563L245.007 49.5437ZM254.206 34.5043H257.642V32.5043H254.206V34.5043ZM256.642 33.5043V49H258.642V33.5043H256.642ZM257.642 50H268.422V48H257.642V50ZM269.422 49V1.83929H267.422V49H269.422ZM249.557 23.0722C247.242 23.0722 245.167 20.9949 245.167 18.0087H243.167C243.167 21.8944 245.943 25.0722 249.557 25.0722V23.0722ZM245.167 18.0087C245.167 15.0224 247.242 12.9452 249.557 12.9452V10.9452C245.943 10.9452 243.167 14.123 243.167 18.0087H245.167ZM249.557 12.9452H257.642V10.9452H249.557V12.9452ZM256.642 11.9452V24.0722H258.642V11.9452H256.642ZM257.642 23.0722H249.557V25.0722H257.642V23.0722ZM325.014 1.83929H326.014V0.839291H325.014V1.83929ZM289.981 1.83929V0.839291H288.981V1.83929H289.981ZM289.981 12.2146H288.981V13.2146H289.981V12.2146ZM302.108 12.2146H303.108V11.2146H302.108V12.2146ZM302.108 49H301.108V50H302.108V49ZM312.887 49V50H313.887V49H312.887ZM312.887 12.2146V11.2146H311.887V12.2146H312.887ZM325.014 12.2146V13.2146H326.014V12.2146H325.014ZM325.014 0.839291H289.981V2.83929H325.014V0.839291ZM288.981 1.83929V12.2146H290.981V1.83929H288.981ZM289.981 13.2146H302.108V11.2146H289.981V13.2146ZM301.108 12.2146V49H303.108V12.2146H301.108ZM302.108 50H312.887V48H302.108V50ZM313.887 49V12.2146H311.887V49H313.887ZM312.887 13.2146H325.014V11.2146H312.887V13.2146ZM326.014 12.2146V1.83929H324.014V12.2146H326.014ZM340.513 38.6246H339.513V39.6246H340.513V38.6246ZM340.513 30.2705V29.2705H339.513V30.2705H340.513ZM357.356 30.2705V31.2705H358.356V30.2705H357.356ZM357.356 20.0299H358.356V19.0299H357.356V20.0299ZM340.513 20.0299H339.513V21.0299H340.513V20.0299ZM340.513 12.2146V11.2146H339.513V12.2146H340.513ZM359.04 12.2146V13.2146H360.04V12.2146H359.04ZM359.04 1.83929H360.04V0.839291H359.04V1.83929ZM329.733 1.83929V0.839291H328.733V1.83929H329.733ZM329.733 49H328.733V50H329.733V49ZM359.377 49V50H360.377V49H359.377ZM359.377 38.6246H360.377V37.6246H359.377V38.6246ZM341.513 38.6246V30.2705H339.513V38.6246H341.513ZM340.513 31.2705H357.356V29.2705H340.513V31.2705ZM358.356 30.2705V20.0299H356.356V30.2705H358.356ZM357.356 19.0299H340.513V21.0299H357.356V19.0299ZM341.513 20.0299V12.2146H339.513V20.0299H341.513ZM340.513 13.2146H359.04V11.2146H340.513V13.2146ZM360.04 12.2146V1.83929H358.04V12.2146H360.04ZM359.04 0.839291H329.733V2.83929H359.04V0.839291ZM328.733 1.83929V49H330.733V1.83929H328.733ZM329.733 50H359.377V48H329.733V50ZM360.377 49V38.6246H358.377V49H360.377ZM359.377 37.6246H340.513V39.6246H359.377V37.6246ZM401.166 1.83929H402.166V0.839291H401.166V1.83929ZM365.459 1.83929V0.839291H364.459V1.83929H365.459ZM365.459 49H364.459V50H365.459V49ZM376.238 49V50H377.238V49H376.238ZM376.238 12.2146V11.2146H375.238V12.2146H376.238ZM390.387 12.2146H391.387V11.2146H390.387V12.2146ZM390.387 49H389.387V50H390.387V49ZM401.166 49V50H402.166V49H401.166ZM401.166 0.839291H365.459V2.83929H401.166V0.839291ZM364.459 1.83929V49H366.459V1.83929H364.459ZM365.459 50H376.238V48H365.459V50ZM377.238 49V12.2146H375.238V49H377.238ZM376.238 13.2146H390.387V11.2146H376.238V13.2146ZM389.387 12.2146V49H391.387V12.2146H389.387ZM390.387 50H401.166V48H390.387V50ZM402.166 49V1.83929H400.166V49H402.166ZM405.909 49H404.909V49.8973L405.801 49.9942L405.909 49ZM424.503 12.2146V11.2146H423.503V12.2146H424.503ZM435.553 12.2146H436.553V11.2146H435.553V12.2146ZM435.553 49H434.553V50H435.553V49ZM446.332 49V50H447.332V49H446.332ZM446.332 1.83929H447.332V0.839291H446.332V1.83929ZM413.724 1.83929V0.839291H412.724V1.83929H413.724ZM405.909 38.8941L406.06 37.9056L404.909 37.7298V38.8941H405.909ZM405.801 49.9942C410.281 50.4804 415.234 49.9106 419.083 46.8896C422.964 43.8434 425.503 38.4808 425.503 29.8662H423.503C423.503 38.0948 421.091 42.7707 417.848 45.3163C414.572 47.8873 410.228 48.4628 406.017 48.0058L405.801 49.9942ZM425.503 29.8662V12.2146H423.503V29.8662H425.503ZM424.503 13.2146H435.553V11.2146H424.503V13.2146ZM434.553 12.2146V49H436.553V12.2146H434.553ZM435.553 50H446.332V48H435.553V50ZM447.332 49V1.83929H445.332V49H447.332ZM446.332 0.839291H413.724V2.83929H446.332V0.839291ZM412.724 1.83929V30.2705H414.724V1.83929H412.724ZM412.724 30.2705C412.724 34.1521 411.98 36.122 410.951 37.0866C409.955 38.0205 408.412 38.2649 406.06 37.9056L405.758 39.8827C408.257 40.2644 410.621 40.1383 412.319 38.5457C413.985 36.9839 414.724 34.2714 414.724 30.2705H412.724ZM404.909 38.8941V49H406.909V38.8941H404.909ZM480.687 49H479.687V50H480.687V49ZM491.466 49V50H492.466V49H491.466ZM491.466 1.83929H492.466V0.839291H491.466V1.83929ZM483.382 1.83929V0.839291H482.866L482.567 1.26008L483.382 1.83929ZM465.191 27.4408H464.191V30.5747L466.006 28.02L465.191 27.4408ZM465.191 1.83929H466.191V0.839291H465.191V1.83929ZM454.412 1.83929V0.839291H453.412V1.83929H454.412ZM454.412 49H453.412V50H454.412V49ZM462.496 49V50H463.012L463.311 49.5792L462.496 49ZM480.687 23.3985H481.687V20.2646L479.872 22.8193L480.687 23.3985ZM480.687 50H491.466V48H480.687V50ZM492.466 49V1.83929H490.466V49H492.466ZM491.466 0.839291H483.382V2.83929H491.466V0.839291ZM482.567 1.26008L464.376 26.8616L466.006 28.02L484.197 2.4185L482.567 1.26008ZM466.191 27.4408V1.83929H464.191V27.4408H466.191ZM465.191 0.839291H454.412V2.83929H465.191V0.839291ZM453.412 1.83929V49H455.412V1.83929H453.412ZM454.412 50H462.496V48H454.412V50ZM463.311 49.5792L481.502 23.9777L479.872 22.8193L461.681 48.4208L463.311 49.5792ZM479.687 23.3985V49H481.687V23.3985H479.687ZM535.253 38.6246H534.253V39.6246H535.253V38.6246ZM535.253 1.83929H536.253V0.839291H535.253V1.83929ZM524.474 1.83929V0.839291H523.474V1.83929H524.474ZM524.474 38.6246V39.6246H525.474V38.6246H524.474ZM510.325 38.6246H509.325V39.6246H510.325V38.6246ZM510.325 1.83929H511.325V0.839291H510.325V1.83929ZM499.546 1.83929V0.839291H498.546V1.83929H499.546ZM499.546 49H498.546V50H499.546V49ZM529.527 49H530.527V48H529.527V49ZM529.527 58.0279H528.527V59.0279H529.527V58.0279ZM540.306 58.0279V59.0279H541.306V58.0279H540.306ZM540.306 38.6246H541.306V37.6246H540.306V38.6246ZM536.253 38.6246V1.83929H534.253V38.6246H536.253ZM535.253 0.839291H524.474V2.83929H535.253V0.839291ZM523.474 1.83929V38.6246H525.474V1.83929H523.474ZM524.474 37.6246H510.325V39.6246H524.474V37.6246ZM511.325 38.6246V1.83929H509.325V38.6246H511.325ZM510.325 0.839291H499.546V2.83929H510.325V0.839291ZM498.546 1.83929V49H500.546V1.83929H498.546ZM499.546 50H529.527V48H499.546V50ZM528.527 49V58.0279H530.527V49H528.527ZM529.527 59.0279H540.306V57.0279H529.527V59.0279ZM541.306 58.0279V38.6246H539.306V58.0279H541.306ZM540.306 37.6246H535.253V39.6246H540.306V37.6246Z" fill="#037B35"/>
</svg>
